<svg version="1.0" xmlns="http://www.w3.org/2000/svg" width="670.000000pt" height="372.000000pt"
    viewBox="0 0 670.000000 372.000000" preserveAspectRatio="xMidYMid meet">

    <g transform="translate(0.000000,372.000000) scale(0.100000,-0.100000)" fill="#346ba2" stroke="none">
        <path  d="M3230 3706 c-459 -63 -836 -326 -1045 -730 l-42 -81 -244 -5 c-274
-7 -317 -14 -456 -81 -152 -73 -279 -193 -361 -340 l-37 -67 -180 -5 c-144 -4
-195 -9 -255 -27 -234 -67 -416 -220 -520 -435 -67 -139 -84 -213 -84 -360 0
-92 6 -139 22 -200 94 -340 392 -589 735 -613 l92 -7 1 -100 c1 -124 15 -187
65 -292 83 -175 250 -304 443 -344 87 -18 174 -19 1986 -19 1821 0 1899 1
1987 19 129 27 218 76 319 176 130 128 184 261 184 452 0 65 4 103 10 103 63
0 221 27 286 49 236 79 434 276 516 511 73 211 60 419 -41 624 -106 217 -286
368 -521 437 -68 20 -102 23 -367 26 l-292 5 -15 -37 c-9 -21 -16 -39 -16 -41
0 -2 125 -4 278 -4 297 0 357 -7 472 -53 95 -39 167 -86 241 -159 151 -147
224 -322 223 -533 -1 -197 -67 -362 -201 -506 -158 -167 -340 -239 -605 -239
-77 0 -77 0 -69 -23 5 -12 14 -56 21 -97 10 -62 9 -90 -3 -162 -37 -215 -184
-378 -402 -445 -57 -17 -145 -18 -2005 -18 l-1945 0 -72 23 c-102 32 -180 80
-251 156 -132 141 -182 341 -129 518 l14 45 -131 6 c-146 7 -217 23 -322 72
-290 133 -469 456 -425 766 40 290 232 519 516 617 l80 27 676 3 676 3 7 -78
c9 -103 39 -233 76 -334 16 -45 29 -83 27 -85 -1 -1 -35 5 -75 14 -57 12 -89
14 -153 6 -78 -9 -80 -9 -73 11 4 11 9 44 11 73 4 43 0 60 -21 96 -42 71 -66
78 -268 72 -95 -2 -182 -5 -193 -5 -11 0 -84 2 -162 5 -117 5 -146 3 -172 -11
-28 -14 -34 -14 -62 0 -25 14 -61 16 -204 13 l-174 -3 -36 -35 c-89 -87 -64
-230 49 -281 l40 -18 57 -218 c31 -120 69 -267 85 -328 24 -94 33 -115 64
-146 92 -94 241 -66 295 55 19 42 24 47 30 31 36 -112 124 -164 225 -134 71
22 104 62 135 164 14 50 30 99 35 110 8 18 9 18 9 -6 2 -52 33 -131 67 -168
19 -21 34 -41 34 -44 0 -3 -23 -13 -51 -22 -47 -16 -128 -70 -157 -104 -7 -9
-27 -43 -43 -77 -73 -150 -34 -334 91 -433 90 -71 143 -79 424 -68 143 6 173
15 204 59 21 29 69 23 98 -12 34 -40 66 -46 235 -45 120 1 150 5 175 20 30 17
32 17 59 -1 21 -14 48 -18 119 -18 110 -1 147 16 171 78 21 51 13 93 -25 141
l-29 37 18 37 c11 20 22 58 26 84 4 26 12 47 19 47 6 0 42 -79 80 -176 38 -97
80 -190 94 -205 13 -16 41 -33 65 -40 55 -15 145 -4 180 21 l27 21 29 -22 c25
-18 41 -21 118 -19 48 1 102 1 118 1 180 -5 201 -4 232 12 18 10 37 26 43 37
17 32 62 26 103 -15 38 -38 29 -36 212 -43 233 -8 259 -7 307 11 39 15 51 16
70 5 13 -7 58 -12 108 -13 70 0 91 4 119 22 l34 21 28 -20 c39 -29 198 -30
238 -1 58 43 62 63 59 339 -2 195 -6 255 -17 267 -16 19 -18 19 76 17 83 -1
140 12 177 41 l27 21 58 -26 c94 -42 183 -53 279 -34 185 37 292 127 292 248
0 23 -6 54 -14 69 -13 24 -13 33 -1 67 20 55 18 112 -6 190 -18 57 -30 77 -82
129 -101 100 -214 138 -346 118 -91 -14 -167 -50 -226 -107 -27 -25 -50 -46
-52 -46 -2 0 -3 18 -3 39 0 35 4 41 37 58 54 28 86 92 80 161 -4 59 -26 95
-77 130 -30 20 -45 22 -154 22 -174 0 -178 -3 -279 -195 -44 -82 -100 -188
-125 -234 l-45 -85 -110 220 c-60 120 -119 230 -131 242 -37 41 -70 52 -157
52 l-83 0 -46 50 c-108 116 -160 246 -167 410 -9 189 47 330 182 466 128 129
269 187 451 186 282 -1 532 -194 609 -472 l15 -55 -5 50 c-16 152 -116 321
-249 422 -201 152 -452 183 -684 84 l-71 -30 -46 52 c-286 321 -755 499 -1165
443z m549 -137 c230 -50 434 -156 611 -318 l45 -41 -25 -17 c-14 -9 -61 -53
-106 -97 -133 -133 -194 -282 -194 -471 0 -185 61 -339 187 -468 38 -39 44
-50 32 -58 -7 -5 -19 -9 -25 -9 -18 0 -83 -76 -90 -105 -11 -44 2 -121 25
-153 12 -17 39 -39 61 -48 l40 -18 0 -83 c0 -74 -2 -83 -18 -83 -11 0 -27 9
-37 20 -40 44 -86 51 -317 48 l-216 -3 -46 -32 -45 -32 -16 49 c-22 65 -83
133 -151 166 -45 22 -71 27 -130 28 l-74 1 0 70 c-1 125 -54 195 -149 195 -44
0 -233 -51 -283 -76 -45 -23 -73 -72 -75 -133 -2 -67 -19 -77 -101 -60 -91 19
-171 4 -308 -57 -15 -7 -66 116 -93 221 -103 408 -2 837 271 1151 140 162 335
296 533 367 215 77 472 94 694 46z m-1676 -774 c-1 -11 -11 -54 -22 -95 -12
-41 -26 -126 -33 -187 l-12 -113 -448 0 c-246 0 -448 4 -448 8 0 5 18 37 41
72 116 180 323 307 540 330 41 4 144 7 229 6 149 -1 155 -2 153 -21z m1068
-785 c17 -10 19 -23 19 -155 0 -80 2 -145 4 -145 2 0 25 9 51 21 72 32 178 25
236 -16 23 -17 53 -50 66 -74 21 -41 23 -56 23 -206 l0 -162 42 -6 c23 -3 48
-14 55 -23 18 -24 16 -75 -3 -102 -14 -21 -22 -22 -161 -22 -166 0 -183 6
-183 67 0 49 15 71 55 79 l35 6 0 146 c0 136 -1 147 -22 169 -14 15 -33 23
-55 23 -42 0 -68 -13 -110 -53 l-33 -31 0 -127 0 -126 42 -6 c23 -3 48 -14 55
-23 18 -24 16 -75 -3 -102 -14 -21 -22 -22 -161 -22 -166 0 -183 6 -183 67 0
49 15 71 55 79 l35 6 0 285 0 286 -27 -7 c-16 -3 -37 -8 -49 -12 -32 -9 -77
35 -77 75 0 17 5 37 11 43 12 12 217 77 245 78 10 0 27 -5 38 -10z m-2224 -15
c44 -31 36 -108 -15 -127 l-27 -11 49 -199 49 -200 56 198 57 199 -27 11 c-44
19 -54 89 -19 124 18 18 33 20 128 20 123 0 140 -7 148 -62 5 -30 2 -41 -18
-61 -13 -13 -30 -26 -37 -28 -11 -4 -5 -43 28 -179 23 -96 44 -182 47 -190 4
-11 112 339 114 368 0 1 -9 2 -20 2 -32 0 -60 36 -60 75 0 22 8 43 20 55 18
18 33 20 164 20 144 0 145 0 165 -26 28 -35 26 -69 -4 -99 -17 -18 -35 -25
-63 -25 l-38 0 -102 -352 c-72 -246 -109 -359 -124 -375 -27 -29 -90 -31 -116
-5 -17 17 -47 127 -104 380 -7 31 -15 48 -19 40 -4 -7 -28 -92 -54 -188 -56
-206 -60 -219 -83 -236 -26 -20 -96 -17 -115 4 -13 14 -158 545 -192 700 -6
29 -10 32 -45 32 -53 0 -84 27 -84 75 0 66 23 75 183 75 104 0 142 -3 158 -15z
m3615 4 c12 -7 77 -127 170 -315 l151 -305 27 48 c15 26 86 162 159 300 73
139 142 260 154 268 15 11 48 15 115 15 85 0 95 -2 117 -25 49 -48 17 -121
-56 -127 l-41 -3 -1 -292 -2 -293 32 0 c70 0 112 -42 99 -96 -13 -51 -25 -54
-211 -54 -168 0 -174 1 -189 22 -17 23 -21 75 -8 94 12 19 49 34 81 34 l31 0
0 173 c0 202 16 210 -134 -73 -54 -102 -108 -195 -119 -207 -23 -26 -73 -31
-101 -10 -10 7 -66 112 -126 232 l-108 220 -1 -166 -1 -166 47 -6 c76 -8 111
-79 63 -127 -19 -19 -33 -20 -200 -20 -172 0 -180 1 -200 22 -25 27 -26 69 -2
98 13 16 32 24 70 28 l52 5 0 293 0 294 -44 0 c-36 0 -48 5 -65 26 -28 35 -26
69 4 99 22 23 31 25 120 25 53 0 105 -5 117 -11z m-2452 -271 c87 -44 110
-112 110 -329 l0 -140 26 20 c30 23 74 27 92 9 9 -9 12 -2 12 35 0 54 25 87
66 87 40 0 61 -17 74 -57 7 -21 24 -50 38 -65 45 -49 179 -62 213 -22 11 13
10 20 -1 42 -12 20 -39 33 -142 67 -132 43 -188 76 -213 125 -37 72 -1 178 74
219 60 33 182 41 246 16 41 -15 46 -15 61 -1 16 16 70 21 90 8 28 -18 36 -55
29 -136 -8 -95 -15 -111 -50 -120 -35 -9 -62 8 -83 52 -25 53 -73 82 -137 82
-61 0 -96 -20 -80 -46 6 -9 64 -35 132 -58 179 -62 227 -99 239 -187 13 -94
-44 -184 -133 -208 -59 -17 -181 -13 -241 8 -43 15 -54 16 -63 4 -19 -22 -78
-16 -101 10 l-21 24 -51 -29 c-33 -18 -66 -28 -94 -28 -44 0 -97 21 -104 41
-3 8 -19 4 -48 -12 -65 -33 -201 -39 -256 -11 -76 39 -104 87 -104 178 0 76
30 128 94 161 32 17 201 53 247 53 26 0 29 3 29 35 0 42 -20 55 -88 55 -35 0
-66 -9 -108 -30 -32 -16 -67 -30 -77 -30 -52 0 -88 59 -67 110 24 59 107 88
255 89 75 1 98 -3 135 -21z m3805 -2 c69 -32 112 -70 139 -125 43 -85 40 -167
-8 -194 -14 -8 -87 -13 -214 -15 -192 -4 -193 -4 -186 -25 21 -67 83 -107 164
-107 56 0 76 8 132 52 102 80 199 -30 107 -121 -51 -52 -129 -75 -249 -76 -90
0 -111 3 -147 23 -136 72 -200 203 -173 354 15 78 31 112 84 166 68 71 114 90
226 91 59 1 86 -4 125 -23z m-1693 -173 c30 -30 30 -86 0 -116 -21 -21 -32
-22 -205 -25 -100 -2 -197 -1 -215 3 -93 17 -99 129 -9 157 12 4 109 6 214 5
184 -2 193 -3 215 -24z m-172 -378 l0 -45 -60 0 -60 0 0 45 0 45 60 0 60 0 0
-45z m529 -195 c42 -12 94 -47 111 -74 11 -18 8 -24 -34 -63 l-46 -44 -40 21
c-26 13 -55 20 -77 18 -55 -5 -53 -26 4 -33 26 -3 71 -12 100 -21 160 -46 163
-250 5 -311 -59 -23 -162 -22 -216 1 -27 11 -43 13 -50 6 -5 -5 -43 -10 -83
-10 l-73 0 -14 35 -15 35 -98 0 -98 0 -15 -33 c-15 -32 -15 -32 -90 -32 -67 0
-75 2 -78 20 -1 11 44 121 100 245 l103 225 79 0 78 0 81 -178 80 -178 34 33
c29 28 36 31 51 20 66 -47 78 -52 126 -50 96 6 59 36 -66 53 -61 8 -122 52
-138 101 -15 43 -8 105 14 139 44 67 169 103 265 75z m-2699 -21 c54 -24 90
-56 90 -80 0 -9 -20 -33 -45 -54 l-45 -37 -46 22 c-110 54 -211 -37 -162 -145
25 -54 104 -71 171 -35 48 26 61 25 85 -5 11 -14 22 -25 25 -25 2 0 40 78 82
173 43 94 82 178 88 185 6 7 36 12 82 12 l72 0 94 -207 94 -208 6 205 c3 113
6 206 7 208 1 1 68 2 149 2 128 0 152 -3 190 -21 106 -51 127 -206 39 -288
l-25 -24 50 -58 c36 -40 50 -64 47 -81 -3 -21 -8 -23 -78 -26 l-75 -3 -55 71
c-30 38 -60 70 -67 70 -9 0 -13 -18 -13 -59 0 -36 -5 -63 -13 -69 -8 -7 -68
-11 -155 -11 l-143 -1 -16 35 -17 35 -96 0 -96 0 -15 -32 c-14 -32 -16 -33
-82 -36 -38 -2 -74 2 -81 7 -8 7 -25 5 -51 -4 -86 -31 -222 -12 -289 39 -132
100 -108 357 39 433 74 39 184 44 255 12z m1415 -100 l40 -107 39 109 38 109
58 0 57 0 39 -105 c21 -58 41 -102 45 -97 4 4 15 32 24 62 10 30 26 74 36 98
l18 42 80 0 c60 0 80 -3 85 -15 3 -8 -27 -97 -65 -197 -39 -101 -80 -207 -91
-236 l-20 -53 -65 3 -66 3 -35 88 c-20 48 -38 87 -41 87 -3 0 -22 -40 -41 -88
l-35 -87 -65 0 -65 0 -93 234 c-51 129 -91 240 -88 248 4 11 25 13 88 11 l83
-3 40 -106z m1593 24 l3 -83 69 0 69 0 3 83 3 82 75 0 75 0 0 -245 0 -245 -69
-3 c-49 -2 -72 1 -77 10 -5 7 -9 46 -9 86 l0 72 -70 0 -69 0 -3 -82 -3 -83
-75 0 -75 0 -3 235 c-1 129 0 241 3 248 3 9 24 12 77 10 l73 -3 3 -82z" />
        <path d="M3194 3386 c-118 -29 -217 -121 -255 -233 -58 -174 23 -364 189 -441
49 -23 70 -27 152 -27 83 0 102 3 150 27 76 38 137 99 174 177 27 58 31 76 30
151 0 59 -5 96 -17 120 -10 19 -14 26 -11 15 4 -11 9 -50 12 -86 5 -84 -22
-152 -85 -210 -55 -50 -97 -69 -165 -71 -79 -4 -142 18 -197 68 -69 62 -95
127 -89 220 6 89 38 149 106 199 107 78 237 70 353 -21 19 -14 10 -3 -18 24
-86 82 -216 117 -329 88z"  0/>
        <path d="M1967 1375 c-88 -15 -120 -35 -115 -74 6 -55 102 -66 176 -21 28 18
32 25 32 65 0 25 -3 45 -7 44 -5 -1 -43 -7 -86 -14z" />
        <path d="M5733 1603 c-25 -5 -83 -55 -83 -72 0 -7 41 -11 125 -11 107 0 125 2
125 16 0 56 -72 85 -167 67z" />
        <path d="M4041 737 c-16 -41 -14 -47 14 -47 29 0 29 -2 11 41 l-14 34 -11 -28z" />
        <path d="M2638 825 c-2 -3 -3 -19 0 -35 4 -30 5 -31 56 -28 41 2 52 7 54 22 3
11 -4 26 -14 33 -17 12 -85 18 -96 8z " />
        <path d="M2186 730 c-14 -34 -14 -35 11 -38 34 -5 36 -1 19 39 l-15 34 -15
-35z" />
        <path d="M5090 2769 c-164 -48 -188 -277 -38 -355 43 -22 45 -16 6 17 -134
109 7 319 162 241 71 -35 101 -127 65 -196 -16 -30 -16 -30 4 -12 52 47 54
171 5 234 -50 62 -134 91 -204 71z" />
        <path d="M5453 2630 c0 -30 2 -43 4 -27 2 15 2 39 0 55 -2 15 -4 2 -4 -28z" />
    </g>
</svg>